# xmcd
#
# Track frame offsets: 
#        150
#        11672
#        21835
#        33260
#        43597
#        57555
#        71440
#        79960
#        89972
#        107062
#        120957
#        136120
#        153025
#        162155
#
# Disc length: 2303 seconds
#
# Revision: 1
# Processed by: cddbd v1.5.2PL0 Copyright (c) Steve Scherf et al.
# Submitted via: ExactAudioCopy v0.99pb4
#
DISCID=ae08fd0e
DTITLE=Nara Leao - Pure Bossa Nova
DYEAR=2005
DGENRE=Jazz
TTITLE0=Corcovado
TTITLE1=Vocé e eu
TTITLE2=Este seu olhar
TTITLE3=Meditacao
TTITLE4=Primavera
TTITLE5=Minha namorado
TTITLE6=Rapaz de bem
TTITLE7=Estrada do sol
TTITLE8=Por causa de voce
TTITLE9=Até quem sabe
TTITLE10=Outra vez
TTITLE11=Com acucar, com afeto
TTITLE12=Chega de saudade
TTITLE13=Garota de Ipanema
EXTD=YEAR: 2005
EXTT0=
EXTT1=
EXTT2=
EXTT3=
EXTT4=
EXTT5=
EXTT6=
EXTT7=
EXTT8=
EXTT9=
EXTT10=
EXTT11=
EXTT12=
EXTT13=
PLAYORDER=
